<?xml version="1.0" standalone="no"?>
<!DOCTYPE svg PUBLIC "-//W3C//DTD SVG 20010904//EN"
 "http://www.w3.org/TR/2001/REC-SVG-20010904/DTD/svg10.dtd">
<svg version="1.0" xmlns="http://www.w3.org/2000/svg"
 width="64.000000pt" height="64.000000pt" viewBox="0 0 64.000000 64.000000"
 preserveAspectRatio="xMidYMid meet">

<g transform="translate(0.000000,64.000000) scale(0.100000,-0.100000)"
fill="#000000" stroke="none">
<path d="M251 630 c-23 -5 -62 -21 -86 -34 -43 -26 -128 -113 -123 -127 2 -4
23 -24 48 -44 40 -33 46 -35 55 -20 42 71 98 105 174 105 28 0 61 -5 75 -11
22 -11 31 -8 76 27 47 36 49 40 33 52 -59 46 -170 68 -252 52z"/>
</g>
</svg>
